<svg width="14" height="15" viewBox="0 0 14 15" fill="none" xmlns="http://www.w3.org/2000/svg">
<path d="M7.72317 1.60288L12.0357 9.07235C12.8644 10.5078 12.373 12.3417 10.9376 13.1704C9.50215 13.9992 7.66826 13.5078 6.83951 12.0723L2.15201 3.95336C1.63451 3.05703 1.94197 1.90956 2.83831 1.39206C3.73465 0.874564 4.88211 1.18203 5.39961 2.07836L9.33711 8.89831C9.54336 9.25555 9.41982 9.71658 9.06259 9.92283C8.70535 10.1291 8.24432 10.0055 8.03807 9.64831L4.47557 3.47788L3.50129 4.04038L7.06379 10.2108C7.58129 11.1071 8.72875 11.4146 9.62509 10.8971C10.5214 10.3796 10.8289 9.23215 10.3114 8.33581L6.37389 1.51586C5.54514 0.0804247 3.71125 -0.410964 2.27581 0.417786C0.840373 1.24654 0.348984 3.08042 1.17773 4.51586L5.86523 12.6348C7.00523 14.6094 9.52555 15.2847 11.5001 14.1447C13.4746 13.0047 14.1499 10.4844 13.0099 8.50985L8.69744 1.04038L7.72317 1.60288Z" fill="#61C7B5"/>
</svg>
