<svg width="24" height="24" viewBox="0 0 24 24" fill="none" xmlns="http://www.w3.org/2000/svg">
<path d="M10.1152 13.1801C10.1152 13.8607 9.56353 14.4124 8.88294 14.4124C8.20239 14.4124 7.65071 13.8608 7.65071 13.1801C7.65071 12.4996 8.20239 11.9479 8.88294 11.9479C9.56353 11.9479 10.1152 12.4996 10.1152 13.1801ZM15.1171 11.9479C14.4365 11.9479 13.8848 12.4996 13.8848 13.1802C13.8848 13.8608 14.4365 14.4124 15.1171 14.4124C15.7976 14.4124 16.3494 13.8608 16.3494 13.1802C16.3493 12.4996 15.7976 11.9479 15.1171 11.9479ZM24 12.4933V14.8352C24 16.011 23.0469 16.9641 21.8711 16.9641H20.3262C18.7954 21.2144 14.8864 23.7817 12 23.7817C9.11357 23.7817 5.20459 21.2144 3.6738 16.9641H2.12894C0.953137 16.9641 0 16.011 0 14.8351V12.4932C0 11.6842 0.451412 10.9806 1.11608 10.6204C1.13839 7.29546 2.10745 4.69872 4.00051 2.90354C5.87824 1.12291 8.56965 0.219971 12 0.219971C15.4304 0.219971 18.1218 1.12291 19.9995 2.9035C21.8925 4.69868 22.8615 7.29546 22.8839 10.6203C23.5486 10.9806 24 11.6842 24 12.4933ZM19.4941 13.1879C19.4941 12.6401 19.466 12.1254 19.4246 11.6267C18.4798 10.7622 16.7645 10.1063 14.5998 9.8626C14.884 10.1822 15.1296 10.6026 15.2785 11.156C13.9525 10.1115 11.3498 10.3601 9.38114 8.02252C9.26827 7.89197 9.17067 7.76723 9.08628 7.65323C9.08529 7.65185 9.0842 7.65079 9.08322 7.64946L9.08345 7.64954C8.73322 7.17589 8.6138 6.89417 8.60714 7.20601C8.54937 9.89279 6.64502 11.9874 4.53035 12.2829C4.51698 12.5784 4.50604 12.8767 4.50604 13.188C4.50604 14.3236 4.69149 15.3586 5.00678 16.2914C6.19463 17.7242 8.15627 18.1288 9.89251 18.2361C10.2148 17.7233 10.938 17.3653 11.7802 17.3653C12.922 17.3653 13.8476 18.0223 13.8476 18.8329C13.8476 19.6434 12.922 20.3004 11.7802 20.3004C10.9019 20.3004 10.1534 19.911 9.85384 19.3627C8.64039 19.2922 7.30643 19.0853 6.11753 18.5239C7.78945 20.9883 10.3814 22.2914 12 22.2914C14.5435 22.2914 19.4941 19.0783 19.4941 13.1879ZM21.6022 10.3643C21.4667 4.56232 18.1549 1.49738 12 1.49738C5.84506 1.49738 2.53337 4.56232 2.39784 10.3643H3.21694C3.51643 8.40876 4.14941 6.80048 5.11047 5.56385C6.64196 3.59334 8.95992 2.59417 12 2.59417C15.0401 2.59417 17.358 3.59334 18.8896 5.56385C19.8506 6.80044 20.4836 8.40876 20.7831 10.3643H21.6022Z" fill="#2C528B"/>
</svg>
