<svg width="26" height="36" viewBox="0 0 26 36" fill="none" xmlns="http://www.w3.org/2000/svg">
<path d="M13.0002 17.12C11.7878 17.12 10.625 16.6565 9.76771 15.8313C8.9104 15.0061 8.42877 13.887 8.42877 12.72C8.42877 11.5531 8.9104 10.4339 9.76771 9.60875C10.625 8.78359 11.7878 8.32002 13.0002 8.32002C14.2126 8.32002 15.3754 8.78359 16.2327 9.60875C17.09 10.4339 17.5716 11.5531 17.5716 12.72C17.5716 13.2978 17.4534 13.87 17.2236 14.4038C16.9939 14.9377 16.6572 15.4227 16.2327 15.8313C15.8082 16.2399 15.3042 16.564 14.7496 16.7851C14.195 17.0062 13.6005 17.12 13.0002 17.12ZM13.0002 0.400024C9.60542 0.400024 6.34969 1.69802 3.94923 4.00847C1.54876 6.31892 0.200195 9.45256 0.200195 12.72C0.200195 21.96 13.0002 35.6 13.0002 35.6C13.0002 35.6 25.8002 21.96 25.8002 12.72C25.8002 9.45256 24.4516 6.31892 22.0512 4.00847C19.6507 1.69802 16.395 0.400024 13.0002 0.400024Z" fill="#8F90A6"/>
</svg>
