<svg width="23" height="33" viewBox="0 0 23 33" fill="none" xmlns="http://www.w3.org/2000/svg">
<path d="M11.4841 15.5721C10.4203 15.5721 9.40006 15.1535 8.64782 14.4084C7.89559 13.6633 7.47299 12.6528 7.47299 11.5991C7.47299 10.5454 7.89559 9.53485 8.64782 8.78977C9.40006 8.04469 10.4203 7.62611 11.4841 7.62611C12.5479 7.62611 13.5682 8.04469 14.3204 8.78977C15.0727 9.53485 15.4953 10.5454 15.4953 11.5991C15.4953 12.1208 15.3915 12.6375 15.1899 13.1195C14.9884 13.6015 14.6929 14.0395 14.3204 14.4084C13.948 14.7773 13.5058 15.07 13.0191 15.2697C12.5325 15.4693 12.0109 15.5721 11.4841 15.5721ZM11.4841 0.474731C8.50543 0.474731 5.64873 1.64676 3.54247 3.73298C1.43621 5.8192 0.25293 8.64873 0.25293 11.5991C0.25293 19.9424 11.4841 32.2586 11.4841 32.2586C11.4841 32.2586 22.7153 19.9424 22.7153 11.5991C22.7153 8.64873 21.532 5.8192 19.4258 3.73298C17.3195 1.64676 14.4628 0.474731 11.4841 0.474731Z" fill="#3E8CB9"/>
</svg>
