<svg width="228" height="150" viewBox="0 0 228 150" fill="none" xmlns="http://www.w3.org/2000/svg">
<circle cx="113" cy="82" r="56" fill="#F2F2F5"/>
<rect width="68.5348" height="111.019" rx="6" transform="matrix(0.981748 -0.190186 0.191434 0.981505 59 32.0343)" fill="#DDE5E9"/>
<rect width="51.4011" height="6.09994" rx="3.04997" transform="matrix(0.981748 -0.190186 0.191434 0.981505 69.1602 39.3777)" fill="white"/>
<rect width="25.7005" height="6.09994" rx="3.04997" transform="matrix(0.981748 -0.190186 0.191434 0.981505 74.7656 68.116)" fill="white"/>
<rect width="25.7005" height="6.09994" rx="3.04997" transform="matrix(0.981748 -0.190186 0.191434 0.981505 81.0703 100.446)" fill="white"/>
<rect width="25.7005" height="6.09994" rx="3.04997" transform="matrix(0.981748 -0.190186 0.191434 0.981505 106.902 117.81)" fill="white"/>
<rect width="33.0436" height="6.09994" rx="3.04997" transform="matrix(0.981748 -0.190186 0.191434 0.981505 76.8672 78.8928)" fill="white"/>
<rect width="47.7296" height="6.09994" rx="3.04997" transform="matrix(0.981748 -0.190186 0.191434 0.981505 78.9688 89.6696)" fill="white"/>
<rect width="42.8342" height="6.09994" rx="3.04997" transform="matrix(0.981748 -0.190186 0.191434 0.981505 72.6641 57.3391)" fill="white"/>
<rect width="19.5814" height="4.87995" rx="2.43998" transform="matrix(0.981748 -0.190186 0.191434 0.981505 82.6777 25.575)" fill="#8F90A6"/>
<path d="M171.316 131.317L142.102 137.005C139.63 137.487 137.205 135.812 136.712 133.284L128.657 91.9142C128.164 89.3861 129.784 86.9237 132.256 86.4424L161.47 80.7538C163.942 80.2725 166.368 81.9472 166.86 84.4753L174.915 125.845C175.408 128.373 173.788 130.835 171.316 131.317Z" fill="#61C7B5"/>
<path d="M157.863 98.1552C156.403 98.4397 154.83 98.1495 153.595 97.1973C151.035 95.4296 150.319 91.7523 152.006 89.0383C152.816 87.8071 154.165 86.9481 155.626 86.6637C157.086 86.3792 158.659 86.6694 159.894 87.6216C162.454 89.3893 163.17 93.0666 161.483 95.7807C160.673 97.0118 159.324 97.8708 157.863 98.1552Z" fill="#3E8CB9"/>
<path d="M142.137 101.219C140.676 101.504 139.103 101.213 137.868 100.261C135.308 98.4934 134.592 94.8161 136.28 92.1021C137.09 90.8709 138.438 90.0119 139.899 89.7275C141.36 89.4431 142.932 89.7332 144.167 90.6855C146.727 92.4532 147.443 96.1305 145.756 98.8445C144.946 100.076 143.597 100.935 142.137 101.219Z" fill="#3E8CB9"/>
<path d="M160.772 113.094C159.312 113.379 157.739 113.089 156.504 112.136C153.944 110.369 153.228 106.691 154.915 103.977C155.725 102.746 157.052 101.772 158.512 101.488C159.973 101.203 161.546 101.494 162.781 102.446C165.341 104.214 166.057 107.891 164.369 110.605C163.582 111.951 162.233 112.81 160.772 113.094Z" fill="#3E8CB9"/>
<path d="M145.044 116.158C143.583 116.442 142.011 116.152 140.776 115.2C138.215 113.432 137.499 109.755 139.187 107.041C139.997 105.81 141.323 104.836 142.784 104.551C144.245 104.267 145.817 104.557 147.052 105.509C149.612 107.277 150.328 110.954 148.641 113.668C147.853 115.014 146.505 115.873 145.044 116.158Z" fill="#3E8CB9"/>
<path d="M163.679 128.032C162.218 128.317 160.645 128.027 159.41 127.074C156.85 125.307 156.134 121.629 157.822 118.915C158.631 117.684 159.958 116.71 161.419 116.426C162.879 116.141 164.452 116.432 165.687 117.384C168.247 119.151 168.963 122.829 167.276 125.543C166.488 126.889 165.139 127.748 163.679 128.032Z" fill="#3E8CB9"/>
<path d="M147.95 131.096C146.489 131.381 144.917 131.09 143.682 130.138C141.122 128.371 140.406 124.693 142.093 121.979C142.903 120.748 144.229 119.774 145.69 119.49C147.151 119.205 148.723 119.495 149.958 120.448C152.518 122.215 153.234 125.893 151.547 128.607C150.76 129.953 149.411 130.812 147.95 131.096Z" fill="#3E8CB9"/>
<path d="M141.91 100.069C144.392 99.5854 146.003 97.1356 145.509 94.597C145.015 92.0583 142.602 90.3922 140.119 90.8755C137.637 91.3588 136.026 93.8087 136.52 96.3473C137.014 98.886 139.427 100.552 141.91 100.069Z" fill="#D6EDF6"/>
<path d="M157.64 97.006C160.122 96.5226 161.734 94.0728 161.239 91.5342C160.745 88.9955 158.332 87.3294 155.85 87.8127C153.368 88.296 151.756 90.7458 152.251 93.2845C152.745 95.8231 155.158 97.4893 157.64 97.006Z" fill="#D6EDF6"/>
<path d="M144.82 115.008C147.302 114.525 148.914 112.075 148.419 109.537C147.925 106.998 145.512 105.332 143.03 105.815C140.547 106.299 138.936 108.748 139.43 111.287C139.925 113.826 142.338 115.492 144.82 115.008Z" fill="#D6EDF6"/>
<path d="M160.55 111.945C163.032 111.462 164.644 109.012 164.15 106.473C163.655 103.934 161.242 102.268 158.76 102.752C156.278 103.235 154.666 105.685 155.161 108.223C155.655 110.762 158.068 112.428 160.55 111.945Z" fill="#D6EDF6"/>
<path d="M147.724 129.947C150.206 129.464 151.818 127.014 151.323 124.475C150.829 121.937 148.416 120.27 145.934 120.754C143.452 121.237 141.84 123.687 142.335 126.225C142.829 128.764 145.242 130.43 147.724 129.947Z" fill="#D6EDF6"/>
<path d="M163.46 126.884C165.943 126.401 167.554 123.951 167.06 121.413C166.565 118.874 164.153 117.208 161.67 117.691C159.188 118.174 157.577 120.624 158.071 123.163C158.565 125.702 160.978 127.368 163.46 126.884Z" fill="#D6EDF6"/>
<path d="M133.073 81.2992V68.5883H114.43V81.2992L104.954 87.3369C103.089 88.4491 102.002 90.5146 102.002 92.739L102.002 133.732C102.002 135.479 103.4 136.909 105.109 136.909H142.394C144.103 136.909 145.502 135.479 145.502 133.732V92.739C145.502 90.5146 144.414 88.4491 142.55 87.3369L133.073 81.2992Z" fill="#87CDE9"/>
<path d="M102 122.609V133.731C102 135.479 103.398 136.909 105.107 136.909H142.392C144.101 136.909 145.5 135.479 145.5 133.731V122.609H102Z" fill="#61C7B5"/>
<path d="M134.63 74.9443H112.88C111.948 74.9443 111.326 74.3088 111.326 73.3555V68.5889C111.326 67.6355 111.948 67 112.88 67H134.63C135.562 67 136.183 67.6355 136.183 68.5889V73.3555C136.183 74.3088 135.562 74.9443 134.63 74.9443Z" fill="#3E8CB9"/>
<path d="M145.5 97.1875H102V128.965H145.5V97.1875Z" fill="#3E8CB9"/>
<path d="M133.072 109.899H126.858V103.544H120.644V109.899H114.43V116.255H120.644V122.61H126.858V116.255H133.072V109.899Z" fill="#D6EDF6"/>
<g opacity="0.2">
<circle cx="173.49" cy="31.4904" r="15" transform="rotate(-30 173.49 31.4904)" fill="#FF8080"/>
</g>
<path d="M179.44 25.7616L174.229 28.77L171.216 23.5505C170.66 22.5883 169.466 22.2671 168.505 22.8217C167.544 23.3764 167.225 24.5715 167.781 25.5337L170.794 30.7532L165.554 33.7784C164.594 34.333 164.275 35.5281 164.83 36.4904C165.386 37.4526 166.58 37.7738 167.541 37.2192L172.781 34.194L175.794 39.4135C176.35 40.3757 177.544 40.6969 178.505 40.1422C179.466 39.5876 179.785 38.3925 179.229 37.4303L176.216 32.2108L181.426 29.2024C182.387 28.6478 182.706 27.4526 182.151 26.4904C181.595 25.5281 180.371 25.2238 179.44 25.7616Z" fill="#FF8080"/>
</svg>
