<svg width="99" height="84" viewBox="0 0 99 84" fill="none" xmlns="http://www.w3.org/2000/svg">
<path d="M81.1378 27.454L86.4844 15.9222L69.5711 8.0806L64.2246 19.6124L53.0874 21.1038C50.9282 21.3286 49.0728 22.7451 48.1372 24.7632L30.8945 61.9531C30.1593 63.5387 30.8263 65.4241 32.3767 66.1429L66.2032 81.8262C67.7536 82.545 69.6236 81.8358 70.3587 80.2502L87.6014 43.0603C88.537 41.0423 88.4193 38.7109 87.1958 36.9177L81.1378 27.454Z" fill="#F2F2F5"/>
<path d="M35.5715 51.8615L30.8933 61.9517C30.1581 63.5373 30.8251 65.4228 32.3755 66.1416L66.202 81.8249C67.7524 82.5437 69.6224 81.8345 70.3575 80.2489L75.0358 70.1586L35.5715 51.8615Z" fill="#F2F2F5"/>
<path d="M85.2216 22.3426L65.4895 13.194C64.6438 12.8019 64.3474 11.9639 64.7483 11.0991L66.7533 6.77466C67.1543 5.90978 67.9854 5.59458 68.8311 5.98666L88.5632 15.1352C89.4088 15.5273 89.7053 16.3653 89.3043 17.2302L87.2993 21.5546C86.8983 22.4195 86.0672 22.7347 85.2216 22.3426Z" fill="#C7C9D9"/>
<path d="M85.7279 47.0949L46.2637 28.7978L32.8972 57.6272L72.3615 75.9243L85.7279 47.0949Z" fill="#C7C9D9"/>
<path d="M69.1074 53.4004L63.4696 50.7865L66.1429 45.0207L60.5052 42.4068L57.8319 48.1727L52.1941 45.5588L49.5209 51.3247L55.1586 53.9385L52.4853 59.7044L58.1231 62.3183L60.7964 56.5524L66.4341 59.1663L69.1074 53.4004Z" fill="white"/>
<path d="M33.477 16.7067L30.648 4.31465L12.4729 8.46385L15.3019 20.8559L7.40669 28.8514C5.83672 30.3506 5.23622 32.6063 5.7313 34.7749L14.8548 74.7394C15.2438 76.4433 16.9252 77.5263 18.5912 77.1459L54.9414 68.8475C56.6074 68.4672 57.6523 66.7619 57.2633 65.058L48.1398 25.0935C47.6447 22.9249 46.1248 21.1532 44.0597 20.4838L33.477 16.7067Z" fill="#F2F2F5"/>
<path d="M12.3774 63.8962L14.8528 74.7393C15.2418 76.4432 16.9232 77.5261 18.5892 77.1457L54.9394 68.8473C56.6054 68.467 57.6503 66.7617 57.2613 65.0578L54.7859 54.2147L12.3774 63.8962Z" fill="#F2F2F5"/>
<path d="M33.5785 10.1651L12.3743 15.0059C11.4655 15.2133 10.7182 14.732 10.5061 13.8026L9.44518 9.15558C9.233 8.22617 9.69739 7.46826 10.6061 7.2608L31.8104 2.42007C32.7191 2.21261 33.4664 2.69391 33.6786 3.62331L34.7395 8.27035C34.9517 9.19975 34.4873 9.95767 33.5785 10.1651Z" fill="#C7C9D9"/>
<path d="M49.1272 29.4309L6.71875 39.1124L13.7912 70.0926L56.1997 60.4111L49.1272 29.4309Z" fill="#C7C9D9"/>
<path d="M39.8415 44.5894L33.7832 45.9725L32.3687 39.7764L26.3103 41.1595L27.7248 47.3555L21.6665 48.7386L23.081 54.9346L29.1393 53.5516L30.5538 59.7476L36.6122 58.3645L35.1977 52.1685L41.256 50.7854L39.8415 44.5894Z" fill="white"/>
</svg>
