<svg width="249" height="167" viewBox="0 0 249 167" fill="none" xmlns="http://www.w3.org/2000/svg">
<path d="M204.162 45.6788C205.027 40.7944 209.657 37.5381 214.542 38.3522C216.831 38.7084 218.765 39.9295 220.087 41.5576C221.665 39.9295 223.954 39.0645 226.346 39.4715C230.212 40.0821 232.858 43.7454 232.197 47.6122C232.095 48.121 231.993 48.5789 231.79 49.0368C234.283 50.0035 235.86 52.5983 235.402 55.3458C234.893 58.5003 231.942 60.6372 228.788 60.1284C228.279 60.0267 227.821 59.874 227.363 59.7214C225.735 61.2987 223.445 62.1127 221.003 61.7057C219.884 61.5022 218.866 61.0951 217.951 60.4846C216.119 62.1636 213.626 62.9777 210.98 62.5706C207.673 62.011 205.18 59.6196 204.315 56.6178C204.162 56.6178 204.01 56.5669 203.857 56.5669C200.855 56.0581 198.871 53.2598 199.329 50.2579C199.838 47.7648 201.822 45.9841 204.162 45.6788Z" fill="#D6EDF6"/>
<path d="M20.2748 121.728C21.5592 114.475 28.4344 109.639 35.6873 110.848C39.0871 111.377 41.9581 113.19 43.9224 115.608C46.2645 113.19 49.6643 111.906 53.2153 112.51C58.9572 113.417 62.8859 118.857 61.9037 124.599C61.7526 125.354 61.6015 126.034 61.2993 126.714C65.0013 128.149 67.3434 132.003 66.6634 136.082C65.9079 140.767 61.5259 143.94 56.8417 143.184C56.0862 143.033 55.4063 142.806 54.7263 142.58C52.3086 144.922 48.9088 146.131 45.2824 145.526C43.6202 145.224 42.1092 144.62 40.7493 143.713C38.0294 146.206 34.3274 147.415 30.3987 146.811C25.4879 145.98 21.7859 142.429 20.5015 137.971C20.2748 137.971 20.0482 137.896 19.8215 137.896C15.364 137.14 12.4175 132.985 13.0974 128.527C13.853 124.825 16.7995 122.181 20.2748 121.728Z" fill="#D6EDF6"/>
<path d="M197.194 65.9947C196.159 65.9947 195.297 66.1671 194.435 66.3396C190.985 59.7859 184.776 54.7844 177.188 53.2322C177.705 51.1626 177.878 49.093 177.878 46.851C177.878 29.6044 163.908 15.8071 146.834 15.8071C136.141 15.8071 126.828 21.1536 121.137 29.2595C114.066 23.0507 104.925 19.2564 94.9218 19.2564C73.1911 19.2564 55.5996 36.6755 55.2547 58.2337C48.8735 60.1308 43.6995 64.4425 40.7676 70.1338C40.4227 70.1338 40.0777 70.1338 39.5603 70.1338C32.4892 70.1338 26.7979 75.8252 26.7979 82.8963C26.7979 89.9674 32.4892 95.6588 39.5603 95.6588C40.5951 95.6588 41.6299 95.4863 42.6647 95.3138C46.9763 101.178 54.0475 105.144 61.9809 105.144C64.7403 105.144 67.3273 104.627 69.7418 103.765C74.9158 113.595 85.0913 120.321 96.9914 120.321C104.407 120.321 111.306 117.734 116.48 113.25C122.344 118.597 129.932 121.874 138.556 121.874C151.836 121.874 163.046 113.94 168.047 102.73C169.255 102.902 170.634 103.075 171.842 103.075C179.258 103.075 185.984 99.7979 190.468 94.7964C192.537 95.8312 194.607 96.3486 197.022 96.3486C205.3 96.3486 212.199 89.6225 212.199 81.1716C212.371 72.7208 205.645 65.9947 197.194 65.9947Z" fill="#D6EDF6"/>
<path d="M192.631 13L194.049 15.8363L197.169 16.3225L194.9 18.5105L195.427 21.6709L192.631 20.1717L189.795 21.6709L190.362 18.5105L188.053 16.3225L191.213 15.8363L192.631 13Z" fill="#87CDE9"/>
<path d="M108.633 141.539H102.85V135.756C102.85 134.704 102.009 133.863 100.957 133.863C99.906 133.863 99.0648 134.704 99.0648 135.756V141.539H93.2818C92.2303 141.539 91.3892 142.38 91.3892 143.432C91.3892 144.483 92.2303 145.324 93.2818 145.324H99.0648V151.107C99.0648 152.159 99.906 153 100.957 153C102.009 153 102.85 152.159 102.85 151.107V145.324H108.633C109.685 145.324 110.526 144.483 110.526 143.432C110.526 142.38 109.685 141.539 108.633 141.539Z" fill="#23CAB4"/>
<path d="M197.211 118.955H190.984V112.719C190.984 111.569 190.08 110.663 188.932 110.663C187.784 110.663 186.88 111.569 186.88 112.719V118.955H180.619C179.471 118.955 178.567 119.861 178.567 121.011C178.567 122.161 179.471 123.067 180.619 123.067H186.88V129.303C186.88 130.453 187.784 131.359 188.932 131.359C190.08 131.359 190.984 130.453 190.984 129.303V123.067H197.211C198.358 123.067 199.263 122.161 199.263 121.011C199.263 119.861 198.324 118.955 197.211 118.955Z" fill="#70CEEC"/>
<path d="M30.7739 49.9634H27.142V46.3254C27.142 45.6546 26.6145 45.1262 25.9449 45.1262C25.2753 45.1262 24.7478 45.6546 24.7478 46.3254V49.9634H21.0956C20.426 49.9634 19.8984 50.4918 19.8984 51.1625C19.8984 51.8332 20.426 52.3617 21.0956 52.3617H24.7478V55.9997C24.7478 56.6704 25.2753 57.1988 25.9449 57.1988C26.6145 57.1988 27.142 56.6704 27.142 55.9997V52.3617H30.7739C31.4435 52.3617 31.971 51.8332 31.971 51.1625C31.971 50.4918 31.4232 49.9634 30.7739 49.9634Z" fill="#70CEEC"/>
<path fill-rule="evenodd" clip-rule="evenodd" d="M58.4769 56.977C58.4769 57.1403 58.4769 57.4667 58.4769 57.63C58.8034 60.4051 60.7623 62.6905 63.5375 63.3435C64.1904 66.2819 66.8023 68.404 69.9039 68.404C69.9039 71.9954 72.8423 74.9337 76.4336 74.9337H79.6985C79.6985 78.5251 82.6369 81.4634 86.2282 81.4634H96.0228C99.6141 81.4634 102.389 67.4246 102.552 67.2613C103.858 65.7921 102.063 66.4451 101.9 66.4451C101.247 66.9348 100.267 66.9348 99.7774 66.2819L91.6152 58.1197C88.6769 55.3446 84.759 53.7122 80.5147 53.7122H60.1094C59.1299 53.7122 58.4769 54.3651 58.4769 55.3446C58.4769 55.5078 58.4769 56.6505 58.4769 56.977Z" fill="#3E8CB9"/>
<path fill-rule="evenodd" clip-rule="evenodd" d="M60.9244 57.63C60.5979 56.9771 59.7817 56.8138 59.292 57.1403C58.9655 57.3035 58.8023 57.63 58.639 58.1198C58.9655 60.0787 60.1082 61.7111 61.9039 62.6905C61.9039 63.017 61.7406 63.1803 61.7406 63.5068C61.7406 67.0981 64.679 70.0365 68.2704 70.0365C68.2704 73.6278 71.2087 76.5662 74.8001 76.5662H78.0649C78.0649 80.1575 81.0033 83.0959 84.5946 83.0959H94.3892C97.9805 83.0959 94.3892 79.831 94.3892 79.831H84.5946C82.799 79.831 81.3298 78.3619 81.3298 76.5662H81.493H82.9622C83.9417 76.5662 84.5946 75.9132 84.5946 74.9338C84.5946 73.9543 83.9417 73.3013 82.9622 73.3013H78.3914H77.9017H74.6368C72.8412 73.3013 71.372 71.8321 71.372 70.0365H75.2898H76.2693C77.2487 70.0365 77.9017 69.3835 77.9017 68.404C77.9017 67.4246 77.2487 66.7716 76.2693 66.7716H72.3514H69.7395H68.1071C66.3114 66.7716 64.8423 65.3024 64.8423 63.5068H66.4747H69.2498H71.372C72.3514 63.5068 73.0044 62.8538 73.0044 61.8743C73.0044 60.8949 72.3514 60.2419 71.372 60.2419H66.4747C66.4747 60.2419 66.4747 60.2419 66.3114 60.2419H65.6585C63.8628 60.2419 62.0671 59.2624 60.9244 57.63C60.9244 57.63 61.0877 57.63 60.9244 57.63Z" fill="#3E8CB9"/>
<path d="M98.8848 40.2083L145.963 33.8903C149.2 33.4559 152.203 35.7487 152.638 38.9853L157.376 74.294C157.81 77.5306 155.518 80.5342 152.281 80.9685L111.088 86.4968L100.898 99.8459L93.8192 46.8789C93.3848 43.6423 95.6482 40.6427 98.8848 40.2083Z" fill="#87CDE9"/>
<path d="M155.118 58.7912L161.364 68.0501L172.486 68.1571L165.663 76.9704L168.98 87.5221L158.466 83.7347L149.42 90.1471L149.838 79.0942L140.933 72.3915L151.633 69.3561L155.118 58.7912Z" fill="#3E8CB9"/>
<rect x="104.97" y="49.4609" width="39.4152" height="6.82186" rx="3.03194" transform="rotate(-7.64357 104.97 49.4609)" fill="white"/>
<rect x="106.684" y="62.2322" width="24.2555" height="6.82186" rx="3.03194" transform="rotate(-7.64357 106.684 62.2322)" fill="white"/>
<path fill-rule="evenodd" clip-rule="evenodd" d="M55.6539 77.3812C55.7366 77.5219 55.902 77.8034 55.9847 77.9442C57.672 80.1715 60.5186 81.1497 63.2421 80.307C65.2936 82.5097 68.6205 83.0164 71.2948 81.4452C73.114 84.5417 77.1359 85.5868 80.2324 83.7676L83.0474 82.1137C84.8666 85.2102 88.8885 86.2553 91.985 84.4361L100.43 79.4746C103.526 77.6554 98.8077 64.1452 98.8658 63.9217C99.2476 61.9935 98.0301 63.4661 97.8893 63.5488C97.5744 64.3018 96.7299 64.7979 95.9769 64.483L84.8049 61.5801C80.8656 60.6758 76.6607 61.2529 73.0013 63.4029L55.4076 73.7393C54.5631 74.2354 54.3309 75.1292 54.827 75.9737C54.9097 76.1144 55.4886 77.0997 55.6539 77.3812Z" fill="white"/>
<path fill-rule="evenodd" clip-rule="evenodd" d="M58.0966 76.7041C57.4843 76.3065 56.6979 76.5792 56.441 77.1088C56.2422 77.4149 56.2668 77.7791 56.3741 78.284C57.6479 79.8077 59.4601 80.6363 61.5045 80.5712C61.6699 80.8527 61.6118 81.0761 61.7772 81.3576C63.5964 84.4541 67.6183 85.4992 70.7148 83.6799C72.534 86.7764 76.556 87.8215 79.6524 86.0023L82.4674 84.3484C84.2866 87.4449 88.3086 88.49 91.405 86.6708L99.85 81.7093C102.946 79.8901 98.1962 78.8943 98.1962 78.8943L89.7512 83.8558C88.203 84.7654 86.192 84.2429 85.2824 82.6946L85.4232 82.6119L86.6899 81.8677C87.5344 81.3716 87.7666 80.4778 87.2705 79.6333C86.7743 78.7888 85.8806 78.5566 85.0361 79.0527L81.0951 81.3681L80.6728 81.6161L77.8579 83.27C76.3096 84.1796 74.2987 83.6571 73.3891 82.1088L76.767 80.1242L77.6115 79.6281C78.456 79.1319 78.6883 78.2382 78.1921 77.3937C77.696 76.5492 76.8022 76.3169 75.9577 76.8131L72.5797 78.7977L70.3277 80.1207L68.9202 80.9477C67.372 81.8573 65.361 81.3347 64.4514 79.7865L65.8589 78.9596L68.2517 77.5538L70.0814 76.4788C70.9259 75.9827 71.1581 75.0889 70.662 74.2444C70.1658 73.3999 69.2721 73.1677 68.4276 73.6639L64.2051 76.1446C64.2051 76.1446 64.2051 76.1446 64.0643 76.2273L63.5013 76.5581C61.9531 77.4677 59.9087 77.5328 58.0966 76.7041C58.0966 76.7041 58.2373 76.6214 58.0966 76.7041Z" fill="#87CDE9"/>
</svg>
