<svg width="106" height="90" viewBox="0 0 106 90" fill="none" xmlns="http://www.w3.org/2000/svg">
<path d="M44.6229 0C67.8139 0 86.807 16.5429 88.9669 39.1591C89.194 41.5376 87.2346 43.4809 84.8453 43.4809H84.5732C82.1838 43.4809 80.2756 41.5338 79.99 39.1617C77.8695 21.5502 62.8783 8.98056 44.6229 8.98056C24.9073 8.98056 8.92459 25.0635 8.92459 44.9028C8.92459 64.7421 24.9073 80.825 44.6229 80.825H72.2765C74.6658 80.825 76.6027 82.762 76.6027 85.1513V85.4793C76.6027 87.8687 74.6658 89.8056 72.2765 89.8056H43.8823C43.8806 89.8056 43.8792 89.8042 43.8792 89.8025C43.8792 89.8008 43.8779 89.7995 43.8762 89.7994C19.576 89.3982 0 69.451 0 44.9028C0 20.1037 19.9784 0 44.6229 0Z" fill="#61C7B5"/>
<path d="M80.2806 73.2397V85.6737C80.2806 88.063 82.2175 89.9999 84.6068 89.9999H85.0318C87.4211 89.9999 89.358 88.063 89.358 85.6737V73.2397H101.674C104.063 73.2397 106 71.3027 106 68.9134V68.4239C106 66.0346 104.063 64.0977 101.674 64.0977H89.358V51.6636C89.358 49.2743 87.4211 47.3374 85.0318 47.3374L84.6068 47.3374C82.2175 47.3374 80.2806 49.2743 80.2806 51.6636L80.2806 64.0977H67.9649C65.5756 64.0977 63.6387 66.0346 63.6387 68.4239V68.9134C63.6387 71.3027 65.5756 73.2397 67.9649 73.2397H80.2806Z" fill="#87CDE9"/>
</svg>
