<svg width="60" height="26" viewBox="0 0 60 26" fill="none" xmlns="http://www.w3.org/2000/svg">
<path fill-rule="evenodd" clip-rule="evenodd" d="M15.9002 6.31854L16.8645 5.35795V12.7438H9.4502L14.3788 7.83414L15.9002 6.31854ZM17.5288 4.69621L17.6788 4.54678C19.1145 3.11657 21.4716 3.11657 22.9073 4.54678L22.9502 4.58947C24.3859 6.01969 24.3859 8.34645 22.9502 9.77667L19.9716 12.7438H17.5288V4.69621ZM19.9931 13.4269L22.8002 16.2233C24.2359 17.6535 24.2359 19.9803 22.8002 21.4105L22.7359 21.4532C21.3002 22.8834 18.9645 22.8834 17.5288 21.4532V13.4269H19.9931ZM16.8645 20.8128L9.47162 13.4269H16.8645V20.8128Z" fill="#C6D80A"/>
<path fill-rule="evenodd" clip-rule="evenodd" d="M0 12.9787V12.9146C0 10.6946 1.82143 8.88013 4.05 8.88013H8.33571V17.0345H4.05C1.82143 17.0345 0 15.1987 0 12.9787ZM12.9 0H12.9643C15.2143 0 17.0357 1.81445 17.0357 4.03448V4.26929L8.85 12.445V4.03448C8.85 1.81445 10.6714 0 12.9 0ZM17.0357 21.7094V21.9655C17.0357 24.1856 15.2143 26 12.9643 26H12.9C10.6714 26 8.85 24.1856 8.85 21.9655V13.6404L17.0357 21.7094Z" fill="#00A0A4"/>
<path fill-rule="evenodd" clip-rule="evenodd" d="M28.6716 7.40715V3.60748H29.293V5.29385L30.5787 3.60748H31.4359L30.2573 5.08039L31.4787 7.40715H30.6645L29.8073 5.61405L29.293 6.25445V7.40715H28.6716ZM28.6287 22.7553V19.1264H29.293V22.7553H28.6287ZM29.9145 22.7553V19.1264H30.5573L31.9073 21.5599V19.1264H32.5287V22.7553H31.8645L30.5359 20.3645V22.7553H29.9145ZM33.2145 19.1264H34.4145C34.693 19.1264 34.9073 19.1477 35.0359 19.2118C35.2287 19.2544 35.4002 19.3825 35.5287 19.5319C35.6787 19.7027 35.7859 19.8948 35.8502 20.1297C35.9145 20.3431 35.9573 20.642 35.9573 20.9835C35.9573 21.2824 35.9145 21.5385 35.8502 21.752C35.7645 22.0081 35.6573 22.2216 35.5073 22.3924C35.4002 22.4991 35.2287 22.6058 35.0359 22.6699C34.9073 22.7339 34.7145 22.7553 34.4573 22.7553H33.2145V19.1264ZM33.8787 19.7454V22.1362H34.3716C34.5645 22.1362 34.693 22.1362 34.7787 22.1149C34.8859 22.0722 34.9716 22.0295 35.0359 21.9441C35.1002 21.8801 35.1645 21.7733 35.2073 21.6026C35.2502 21.4531 35.2716 21.2183 35.2716 20.9408C35.2716 20.6633 35.2502 20.4498 35.2073 20.3004C35.1645 20.151 35.1002 20.0229 35.0145 19.9589C34.9502 19.8735 34.843 19.8095 34.7145 19.7881C34.6287 19.7668 34.4359 19.7454 34.1787 19.7454H33.8787ZM36.3859 20.9622C36.3859 20.5993 36.4287 20.2791 36.5359 20.0443C36.6002 19.8521 36.7073 19.6814 36.8359 19.5319C36.9645 19.3825 37.1145 19.2758 37.2645 19.2118C37.4573 19.1264 37.693 19.0623 37.9716 19.0623C38.443 19.0623 38.8287 19.2331 39.1287 19.5746C39.4073 19.8948 39.5573 20.3645 39.5573 20.9408C39.5573 21.5385 39.4073 21.9868 39.1287 22.3283C38.8287 22.6485 38.443 22.8193 37.9716 22.8193C37.4787 22.8193 37.093 22.6485 36.8145 22.3283C36.5145 21.9868 36.3859 21.5385 36.3859 20.9622ZM37.0716 20.9408C37.0716 21.3464 37.1573 21.6666 37.3287 21.8801C37.5002 22.0935 37.7145 22.2003 37.9716 22.2003C38.2287 22.2003 38.443 22.0935 38.6145 21.8801C38.7859 21.6666 38.8716 21.3464 38.8716 20.9195C38.8716 20.5139 38.7859 20.215 38.6359 20.0016C38.4645 19.7881 38.2502 19.7027 37.9716 19.7027C37.693 19.7027 37.4787 19.7881 37.3073 20.0016C37.1359 20.215 37.0716 20.5139 37.0716 20.9408ZM40.0716 22.7553V19.1264H40.7145L42.0645 21.5599V19.1264H42.6645V22.7553H42.0002L40.6716 20.3645V22.7553H40.0716ZM43.3716 22.7553V19.1264H45.793V19.7454H44.0359V20.5566H45.6645V21.1543H44.0359V22.1362H45.8573V22.7553H43.3716ZM46.243 21.5812L46.8859 21.5172C46.9287 21.752 46.993 21.9228 47.1216 22.0295C47.2287 22.1362 47.4002 22.2003 47.593 22.2003C47.8073 22.2003 47.9573 22.1576 48.0645 22.0508C48.1716 21.9441 48.2359 21.8374 48.2359 21.7093C48.2359 21.6239 48.2145 21.5385 48.1716 21.4745C48.1287 21.4318 48.043 21.3677 47.9359 21.3251C47.8502 21.3037 47.6787 21.2397 47.4002 21.1756C47.0573 21.0689 46.8002 20.9622 46.6502 20.8127C46.4573 20.6206 46.3502 20.3645 46.3502 20.087C46.3502 19.8948 46.4145 19.7241 46.5002 19.5533C46.5859 19.4039 46.7359 19.2758 46.9073 19.1904C47.0787 19.105 47.293 19.0623 47.5502 19.0623C47.9573 19.0623 48.2573 19.1691 48.4716 19.3612C48.6859 19.5746 48.793 19.8308 48.793 20.1723L48.1287 20.1937C48.1073 20.0229 48.043 19.8735 47.9573 19.7881C47.8716 19.7241 47.7216 19.6814 47.5502 19.6814C47.3573 19.6814 47.2073 19.7241 47.1002 19.8095C47.0359 19.8521 46.993 19.9375 46.993 20.0229C46.993 20.1083 47.0145 20.1937 47.0787 20.2577C47.1645 20.3218 47.3787 20.4072 47.7002 20.4925C48.0216 20.5779 48.2573 20.6633 48.4073 20.7487C48.5573 20.8341 48.6859 20.9622 48.7716 21.1329C48.8573 21.2824 48.9002 21.4745 48.9002 21.6879C48.9002 21.9014 48.8359 22.0935 48.7287 22.2856C48.643 22.4564 48.493 22.6058 48.3002 22.6912C48.1073 22.7766 47.8716 22.8193 47.593 22.8193C47.1645 22.8193 46.8645 22.7126 46.6287 22.4991C46.4145 22.2856 46.2859 21.9868 46.243 21.5812ZM49.4359 22.7553V19.1264H50.1002V22.7553H49.4359ZM53.6787 22.7553H52.9502L52.6716 21.9228H51.3645L51.0859 22.7553H50.4002L51.6645 19.1264H52.3502L53.6787 22.7553ZM52.4573 21.3251L52.0073 19.9802L51.5573 21.3251H52.4573ZM28.6502 17.7175V13.9178H29.9145C30.2359 13.9178 30.4716 13.9392 30.6216 14.0032C30.7716 14.0886 30.8787 14.1953 30.9645 14.3875C31.0502 14.5582 31.093 14.7503 31.093 14.9852C31.093 15.2627 31.0287 15.4975 30.9002 15.6896C30.7716 15.8604 30.5787 15.9884 30.3002 16.0311C30.4287 16.1379 30.5359 16.2446 30.6216 16.3513C30.7073 16.4581 30.8359 16.6715 30.9645 16.9704L31.3287 17.7175H30.6216L30.193 16.885C30.0216 16.5861 29.9145 16.394 29.8716 16.33C29.8073 16.2446 29.743 16.2019 29.6787 16.1592C29.6145 16.1379 29.5073 16.1165 29.3787 16.1165H29.2502V17.7175H28.6502ZM29.2502 15.5188H29.7002C30.0002 15.5188 30.1716 15.4975 30.2359 15.4761C30.3216 15.4334 30.3645 15.3907 30.4073 15.3053C30.4502 15.2413 30.4716 15.1346 30.4716 15.0278C30.4716 14.8998 30.4502 14.793 30.3859 14.7076C30.343 14.6436 30.2573 14.5796 30.1716 14.5582C30.1073 14.5582 29.9787 14.5582 29.7216 14.5582H29.2502V15.5188ZM31.6716 17.7175V13.9178H33.8787V14.5582H32.2716V15.3907H33.7716V16.0311H32.2716V17.0771H33.943V17.7175H31.6716ZM34.4573 17.7175V13.9178H35.4216C35.7859 13.9178 36.0216 13.9392 36.1287 13.9605C36.3002 14.0246 36.4502 14.1526 36.5573 14.3448C36.6859 14.5369 36.7287 14.7717 36.7287 15.0705C36.7287 15.3053 36.7073 15.5188 36.643 15.6682C36.5787 15.8177 36.493 15.9457 36.3859 16.0525C36.2787 16.1379 36.1716 16.2019 36.0645 16.2232C35.9359 16.2659 35.7216 16.2873 35.443 16.2873H35.0573V17.7175H34.4573ZM35.0573 14.5582V15.6255H35.3787C35.6145 15.6255 35.7859 15.6255 35.8502 15.5829C35.9359 15.5402 36.0002 15.4761 36.043 15.3907C36.0859 15.3053 36.1073 15.1986 36.1073 15.0919C36.1073 14.9425 36.0859 14.8357 36.0216 14.7503C35.9573 14.665 35.8716 14.6009 35.7859 14.5796C35.7002 14.5582 35.5716 14.5582 35.3359 14.5582H35.0573ZM37.243 13.9178H37.843V15.9671C37.843 16.2873 37.843 16.5008 37.8645 16.6075C37.8859 16.7569 37.9502 16.885 38.0359 16.9704C38.143 17.0771 38.2716 17.1198 38.443 17.1198C38.6145 17.1198 38.743 17.0771 38.8287 16.9917C38.9145 16.9063 38.9573 16.7996 38.9787 16.6502C39.0002 16.5221 39.0002 16.3086 39.0002 16.0098V13.9178H39.6002V15.903C39.6002 16.3727 39.6002 16.6929 39.5573 16.885C39.5359 17.0558 39.4716 17.2265 39.3859 17.3546C39.3002 17.4827 39.1716 17.5894 39.0216 17.6748C38.893 17.7388 38.7002 17.7815 38.4645 17.7815C38.1645 17.7815 37.9502 17.7388 37.8002 17.6535C37.6716 17.5681 37.543 17.4613 37.4573 17.3333C37.3716 17.1838 37.3287 17.0558 37.2859 16.9063C37.243 16.6929 37.243 16.3727 37.243 15.9457V13.9178ZM40.243 13.9178H41.443C41.6787 13.9178 41.8502 13.9178 41.9787 13.9392C42.0859 13.9819 42.193 14.0246 42.2787 14.1099C42.3859 14.174 42.4502 14.2807 42.5145 14.4301C42.5787 14.5582 42.6002 14.7076 42.6002 14.8571C42.6002 15.0492 42.5787 15.1986 42.493 15.348C42.4287 15.4975 42.3216 15.6042 42.193 15.6896C42.3645 15.7536 42.5145 15.8604 42.6002 16.0311C42.7073 16.2019 42.7502 16.394 42.7502 16.6075C42.7502 16.7783 42.7287 16.949 42.6645 17.1198C42.6002 17.2692 42.5145 17.3973 42.4073 17.504C42.3002 17.6108 42.1502 17.6535 42.0002 17.6962C41.893 17.6962 41.6573 17.7175 41.2716 17.7175H40.243V13.9178ZM40.8645 14.5369V15.4121H41.2502C41.4859 15.4121 41.6359 15.4121 41.6787 15.4121C41.7859 15.3907 41.8716 15.348 41.9359 15.2627C42.0002 15.1986 42.0216 15.0919 42.0216 14.9638C42.0216 14.8571 42.0002 14.7717 41.9359 14.6863C41.893 14.6223 41.8073 14.5796 41.7216 14.5582C41.6573 14.5369 41.4859 14.5369 41.2073 14.5369H40.8645ZM40.8645 16.0525V17.0771H41.4216C41.6359 17.0771 41.7645 17.0558 41.8287 17.0558C41.9145 17.0344 42.0002 16.9704 42.043 16.885C42.1073 16.8209 42.1287 16.7142 42.1287 16.5648C42.1287 16.4581 42.1073 16.3513 42.0645 16.2873C42.0216 16.2019 41.9573 16.1379 41.8716 16.0952C41.7859 16.0738 41.6145 16.0525 41.3359 16.0525H40.8645ZM43.2859 17.7175V13.9392H43.8859V17.0771H45.3859V17.7175H43.2859ZM45.793 17.7175V13.9178H46.393V17.7175H45.793ZM46.993 17.7175V13.9178H47.593V15.6042L48.8145 13.9178H49.6287L48.493 15.3907L49.6716 17.7175H48.9002L48.0859 15.9244L47.593 16.5648V17.7175H46.993ZM28.5645 12.4449V8.92275H29.2073V10.481L30.4502 8.92275H31.2859L30.1287 10.2889L31.3502 12.4449H30.5359L29.7002 10.8012L29.2073 11.3776V12.4449H28.5645ZM31.6716 12.4449V8.92275H33.943V9.52046H32.293V10.2889H33.8359V10.8866H32.293V11.8472H34.0073V12.4449H31.6716ZM34.3716 11.3136L34.9716 11.2282C35.0145 11.463 35.1002 11.6338 35.2073 11.7618C35.3145 11.8686 35.4645 11.9113 35.6573 11.9113C35.8502 11.9113 36.0002 11.8686 36.1073 11.7618C36.193 11.6764 36.2573 11.5484 36.2573 11.4203C36.2573 11.3349 36.2359 11.2709 36.193 11.2068C36.1502 11.1641 36.0645 11.1001 35.9573 11.0574C35.893 11.0361 35.7216 10.972 35.4645 10.908C35.143 10.8012 34.9073 10.6945 34.7787 10.5451C34.5859 10.353 34.5002 10.1182 34.5002 9.84065C34.5002 9.66988 34.543 9.49911 34.6287 9.32834C34.7145 9.17891 34.843 9.05083 35.0145 8.96545C35.1645 8.90141 35.3787 8.85871 35.6145 8.85871C36.0002 8.85871 36.2787 8.9441 36.4716 9.13622C36.6645 9.34968 36.7716 9.60584 36.793 9.92604L36.1716 9.94738C36.1287 9.77661 36.0859 9.64853 36.0002 9.56315C35.9145 9.47776 35.7859 9.43507 35.593 9.43507C35.4216 9.43507 35.293 9.47776 35.1859 9.56315C35.1216 9.62719 35.0787 9.69123 35.0787 9.79796C35.0787 9.88335 35.1216 9.94738 35.1859 10.0114C35.2502 10.0755 35.443 10.1608 35.743 10.2462C36.043 10.3316 36.2787 10.417 36.4073 10.5024C36.5573 10.5878 36.6645 10.7159 36.7502 10.8653C36.8359 11.0147 36.8787 11.2068 36.8787 11.4203C36.8787 11.6338 36.8359 11.8259 36.7287 11.9966C36.6216 12.1674 36.493 12.2955 36.3216 12.3809C36.1287 12.4663 35.9145 12.509 35.6359 12.509C35.2502 12.509 34.9502 12.4236 34.7573 12.2101C34.543 11.9966 34.4145 11.6978 34.3716 11.3136ZM37.4145 12.4449V8.92275H39.6859V9.52046H38.0359V10.2889H39.5787V10.8866H38.0359V11.8472H39.7502V12.4449H37.4145ZM40.2645 12.4449V8.92275H40.9073V10.3103H42.1073V8.92275H42.7287V12.4449H42.1073V10.908H40.9073V12.4449H40.2645ZM46.1573 12.4449H45.4716L45.2145 11.6551H43.9716L43.7145 12.4449H43.0716L44.2502 8.92275H44.9145L46.1573 12.4449ZM45.0216 11.0574L44.593 9.73392L44.1645 11.0574H45.0216ZM46.8645 12.4449V9.52046H45.943V8.92275H48.3859V9.52046H47.4859V12.4449H46.8645ZM51.2359 12.4449H50.5716L50.3145 11.6551H49.0716L48.8145 12.4449H48.1502L49.3502 8.92275H50.0145L51.2359 12.4449ZM50.1002 11.0574L49.6716 9.73392L49.2645 11.0574H50.1002ZM51.5787 12.4449V8.92275H52.1787L53.443 11.2922V8.92275H54.0216V12.4449H53.4002L52.1573 10.1182V12.4449H51.5787ZM31.8216 7.40715V3.60748H34.1359V4.24788H32.443V5.10174H34.0073V5.74213H32.443V6.76676H34.1787V7.40715H31.8216ZM34.7145 7.40715V3.60748H35.6573L36.2145 6.19041L36.7716 3.60748H37.7359V7.40715H37.1359V4.41865L36.5145 7.40715H35.9145L35.293 4.41865V7.40715H34.7145ZM38.3573 7.40715V3.60748H40.6716V4.24788H39.0002V5.10174H40.5645V5.74213H39.0002V6.76676H40.7359V7.40715H38.3573ZM41.2716 7.40715V3.60748H41.893L43.1787 6.14771V3.60748H43.7573V7.40715H43.1145L41.8502 4.90962V7.40715H41.2716ZM45.1287 7.40715V4.24788H44.2073V3.60748H46.6716V4.24788H45.7502V7.40715H45.1287ZM47.0787 7.40715V3.60748H49.393V4.24788H47.7216V5.10174H49.2859V5.74213H47.7216V6.76676H49.4573V7.40715H47.0787ZM49.993 7.40715V3.60748H51.3216C51.6645 3.60748 51.9002 3.65018 52.0502 3.71422C52.2002 3.77825 52.3287 3.90633 52.4145 4.07711C52.5216 4.24788 52.5645 4.46134 52.5645 4.67481C52.5645 4.95231 52.5002 5.18712 52.3502 5.37924C52.2216 5.57136 52.0073 5.67809 51.7287 5.72078C51.8787 5.82752 51.9859 5.93425 52.0716 6.04098C52.1573 6.16906 52.2859 6.36118 52.4359 6.66003L52.8216 7.40715H52.0502L51.6002 6.57464C51.4502 6.27579 51.3216 6.10502 51.2787 6.01963C51.2145 5.93425 51.1502 5.89156 51.0859 5.87021C51.0216 5.82752 50.9145 5.82752 50.7645 5.82752H50.6359V7.40715H49.993ZM50.6359 5.20847H51.1073C51.4073 5.20847 51.6002 5.20847 51.6645 5.16578C51.7502 5.14443 51.793 5.08039 51.8359 5.01635C51.8787 4.93096 51.9002 4.84558 51.9002 4.7175C51.9002 4.58942 51.8787 4.50403 51.8145 4.41865C51.7716 4.33326 51.6859 4.29057 51.5787 4.26922C51.5359 4.24788 51.3859 4.24788 51.1287 4.24788H50.6359V5.20847ZM53.1216 7.40715V3.60748H53.7645V7.40715H53.1216ZM57.1716 7.40715H56.5073L56.2287 6.53195H54.9859L54.7073 7.40715H54.043L55.2645 3.60748H55.9287L57.1716 7.40715ZM56.0145 5.89156L55.5859 4.50403L55.1573 5.89156H56.0145ZM57.5145 7.40715V3.60748H58.1359L59.4216 6.14771V3.60748H60.0002V7.40715H59.3787L58.093 4.90962V7.40715H57.5145Z" fill="black"/>
</svg>
