<svg width="177" height="105" viewBox="0 0 177 105" fill="none" xmlns="http://www.w3.org/2000/svg">
<path d="M152.084 23.7652C152.772 19.8793 156.455 17.2887 160.341 17.9363C162.163 18.2197 163.701 19.1912 164.753 20.4865C166.008 19.1912 167.83 18.503 169.732 18.8269C172.808 19.3126 174.913 22.227 174.387 25.3033C174.306 25.7081 174.225 26.0724 174.063 26.4367C176.047 27.2058 177.301 29.2702 176.937 31.456C176.532 33.9656 174.185 35.6657 171.675 35.2609C171.27 35.18 170.906 35.0585 170.542 34.9371C169.246 36.1919 167.425 36.8396 165.482 36.5158C164.591 36.3538 163.782 36.03 163.053 35.5443C161.596 36.8801 159.613 37.5277 157.508 37.2039C154.877 36.7586 152.893 34.8562 152.205 32.468C152.084 32.468 151.962 32.4275 151.841 32.4275C149.453 32.0227 147.874 29.7964 148.238 27.4082C148.643 25.4248 150.222 24.008 152.084 23.7652Z" fill="#D6EDF6"/>
<path d="M5.78766 84.2677C6.80948 78.4975 12.2792 74.6507 18.0494 75.6124C20.7542 76.0331 23.0383 77.4757 24.6011 79.3991C26.4644 77.4757 29.1692 76.4539 31.9942 76.9347C36.5623 77.656 39.6879 81.9837 38.9065 86.5518C38.7863 87.1529 38.6661 87.6938 38.4256 88.2348C41.3709 89.3768 43.2342 92.4423 42.6932 95.688C42.0921 99.4146 38.6059 101.939 34.8793 101.338C34.2783 101.218 33.7373 101.038 33.1963 100.857C31.2729 102.721 28.5681 103.682 25.683 103.201C24.3606 102.961 23.1585 102.48 22.0766 101.759C19.9127 103.742 16.9675 104.704 13.842 104.223C9.93503 103.562 6.9898 100.737 5.96798 97.1907C5.78766 97.1907 5.60734 97.1306 5.42702 97.1306C1.88072 96.5295 -0.463441 93.2236 0.0775195 89.6773C0.678587 86.7321 3.02275 84.6284 5.78766 84.2677Z" fill="#D6EDF6"/>
<path d="M146.54 39.9279C145.717 39.9279 145.03 40.0651 144.344 40.2023C141.6 34.9883 136.661 31.0093 130.623 29.7744C131.035 28.1279 131.172 26.4814 131.172 24.6977C131.172 10.9767 120.058 0 106.475 0C97.9677 0 90.5584 4.25348 86.0305 10.7023C80.4049 5.76279 73.1328 2.74418 65.1747 2.74418C47.8863 2.74418 33.891 16.6023 33.6166 33.7535C28.5398 35.2628 24.4236 38.693 22.091 43.2209C21.8166 43.2209 21.5422 43.2209 21.1305 43.2209C15.505 43.2209 10.9771 47.7488 10.9771 53.3744C10.9771 59 15.505 63.5279 21.1305 63.5279C21.9538 63.5279 22.777 63.3906 23.6003 63.2534C27.0305 67.9186 32.6561 71.0744 38.9677 71.0744C41.1631 71.0744 43.2212 70.6627 45.1422 69.9767C49.2584 77.7976 57.3538 83.1488 66.8212 83.1488C72.7212 83.1488 78.2096 81.0906 82.3258 77.5232C86.991 81.7767 93.0282 84.3837 99.8886 84.3837C110.454 84.3837 119.372 78.072 123.351 69.1534C124.312 69.2906 125.41 69.4279 126.37 69.4279C132.27 69.4279 137.621 66.8209 141.189 62.8418C142.835 63.6651 144.482 64.0767 146.403 64.0767C152.989 64.0767 158.477 58.7255 158.477 52.0023C158.614 45.279 153.263 39.9279 146.54 39.9279Z" fill="#D6EDF6"/>
<path d="M59.9375 15L107.438 15C110.704 15 113.375 17.6719 113.375 20.9375V56.5628C113.375 59.8284 110.704 62.5003 107.438 62.5003H65.8751L54 74.3754L54.0297 20.9375C54.0297 17.6719 56.6719 15 59.9375 15Z" fill="#87CDE9"/>
<path d="M113.2 44L118.158 54.0074L129.167 55.5927L121.233 63.4202L123.117 74.3194L113.2 69.1671L103.381 74.3194L105.266 63.4202L97.3315 55.5927L108.34 54.0074L113.2 44Z" fill="#3E8CB9"/>
<rect x="64.7383" y="24.98" width="39.4152" height="6.82186" rx="3.03194" fill="white"/>
<rect x="64.7383" y="37.8657" width="24.2555" height="6.82186" rx="3.03194" fill="white"/>
</svg>
