<svg width="106" height="111" viewBox="0 0 106 111" fill="none" xmlns="http://www.w3.org/2000/svg">
<ellipse cx="43.5957" cy="102.879" rx="43.5957" ry="7.26595" fill="#EBEBF0"/>
<path d="M3.92964 57.2118L22.7526 57.1319L31.4371 57.0951L55.015 56.995L63.6995 56.9581L82.5225 56.8782C84.6838 56.869 86.4597 58.6352 86.4689 60.8031L86.3555 61.8678L76.5293 98.4487C75.6003 101.764 72.5848 104.22 68.9695 104.236L17.8842 104.452C14.2689 104.468 11.2327 102.037 10.3148 98.7298L0.178436 62.2337C0.059041 61.8794 0.0182388 61.5248 0.0167328 61.1701C0.00752978 59.0022 1.76834 57.221 3.92964 57.2118Z" fill="#C7C9D9"/>
<rect x="20.3262" y="70.6567" width="5.06787" height="20.2715" rx="2.53393" transform="rotate(-0.243231 20.3262 70.6567)" fill="white"/>
<rect x="42.2871" y="70.563" width="5.06787" height="20.2715" rx="2.53393" transform="rotate(-0.243231 42.2871 70.563)" fill="white"/>
<rect x="64.2471" y="70.4695" width="5.06787" height="20.2715" rx="2.53393" transform="rotate(-0.243231 64.2471 70.4695)" fill="white"/>
<path d="M11.5636 52.6262C9.28282 43.6135 10.254 25.482 33.8097 18.3255C63.2544 9.37994 68.2411 49.5887 89.3311 18.3255" stroke="#C7C9D9" stroke-dasharray="2 2"/>
<path d="M100.443 9.96391C100.354 9.55388 100.234 9.19368 100.181 8.94767C100.708 9.00577 101.909 9.00467 102.295 8.40673C102.746 7.70913 103.492 6.99076 103.823 7.13399L103.803 6.83815C103.19 6.58386 102.268 7.68321 101.914 8.23132C101.625 8.67977 100.506 8.66322 99.9785 8.60512C99.8934 8.40893 99.8581 8.24492 99.8405 8.16292C99.9339 7.79959 99.9774 7.40409 99.8892 6.99406C99.9888 7.05842 100.071 7.04077 100.203 7.05529C100.449 7.00234 100.677 6.86738 100.806 6.66807C101.321 5.87081 100.617 4.99266 99.8195 4.47782C99.0222 3.96299 97.9323 3.68277 97.4174 4.48003C97.2887 4.67934 97.1777 4.96066 97.3126 5.18902C97.3303 5.27103 97.3978 5.38521 97.4974 5.44956C97.0874 5.53782 96.777 5.69043 96.4521 5.97487C96.4199 6.0247 96.2559 6.06001 96.0421 6.06313C95.7722 5.6064 95.3289 4.54346 95.5863 4.14483C95.9402 3.59672 96.563 2.30431 96.0792 1.85071L95.9184 2.09985C96.1852 2.34274 95.8375 3.31853 95.387 4.01612C95.033 4.56423 95.5262 5.65936 95.7141 6.13374C93.9068 6.30822 89.8034 6.97695 89.243 9.15689C88.942 9.95102 89.35 10.85 90.1441 11.1509C90.3258 11.1976 90.4576 11.2122 90.6393 11.2589C89.8608 12.0271 89.0792 12.5814 88.5311 12.2275L88.4024 12.4268C89.1996 12.9416 90.0778 12.2378 91.067 11.2526C91.8725 11.2079 92.6427 10.9993 93.3278 10.5944C92.8016 11.7373 92.7383 13.038 93.8844 13.7781C95.0304 14.5181 96.1899 13.9253 97.0151 12.9755C96.928 13.7665 97.0225 14.6042 97.3453 15.3069C96.8866 16.564 96.5742 17.7038 97.3714 18.2187L97.5323 17.9695C96.9344 17.5834 97.1357 16.7249 97.5478 15.6495C97.8883 16.4342 98.8143 16.7498 99.599 16.4092C99.763 16.3739 99.9094 16.2566 100.006 16.1071C101.437 14.9839 101.001 12.1604 100.443 9.96391ZM95.5585 8.99877C95.4267 8.98425 95.3447 9.0019 95.2128 8.98737C95.5377 8.70293 95.7308 8.40396 95.9239 8.10499C95.9737 8.13717 95.9913 8.21917 96.0412 8.25135C95.8305 8.46831 95.6696 8.71746 95.5585 8.99877ZM97.5517 10.2859C97.7624 10.0689 97.9233 9.81975 98.0343 9.53843C98.0841 9.57061 98.1661 9.55296 98.216 9.58514C98.0229 9.8841 97.8475 10.2651 97.7043 10.5962C97.6368 10.482 97.5693 10.3679 97.5517 10.2859Z" fill="#C7C9D9"/>
</svg>
