<svg width="223" height="140" viewBox="0 0 223 140" fill="none" xmlns="http://www.w3.org/2000/svg">
<path d="M191.162 32.6788C192.027 27.7944 196.657 24.5381 201.541 25.3522C203.831 25.7084 205.764 26.9295 207.087 28.5576C208.664 26.9295 210.954 26.0645 213.345 26.4715C217.212 27.0821 219.858 30.7454 219.196 34.6122C219.094 35.121 218.993 35.5789 218.789 36.0368C221.282 37.0035 222.859 39.5983 222.402 42.3458C221.893 45.5003 218.942 47.6372 215.787 47.1284C215.278 47.0267 214.821 46.874 214.363 46.7214C212.735 48.2987 210.445 49.1127 208.003 48.7057C206.883 48.5022 205.866 48.0951 204.95 47.4846C203.118 49.1636 200.625 49.9777 197.98 49.5706C194.672 49.011 192.179 46.6196 191.314 43.6178C191.162 43.6178 191.009 43.5669 190.857 43.5669C187.855 43.0581 185.87 40.2598 186.328 37.2579C186.837 34.7648 188.821 32.9841 191.162 32.6788Z" fill="#D6EDF6"/>
<path d="M7.27458 108.728C8.55896 101.475 15.4341 96.6395 22.6871 97.8483C26.0869 98.3772 28.9579 100.19 30.9222 102.608C33.2643 100.19 36.6641 98.906 40.215 99.5105C45.9569 100.417 49.8856 105.857 48.9034 111.599C48.7523 112.354 48.6012 113.034 48.299 113.714C52.001 115.15 54.3431 119.003 53.6632 123.083C52.9077 127.767 48.5257 130.94 43.8415 130.184C43.086 130.033 42.406 129.807 41.726 129.58C39.3084 131.922 35.9086 133.131 32.2821 132.526C30.62 132.224 29.109 131.62 27.749 130.713C25.0292 133.206 21.3272 134.415 17.3985 133.811C12.4876 132.98 8.78561 129.429 7.50124 124.971C7.27458 124.971 7.04793 124.896 6.82127 124.896C2.36374 124.14 -0.582769 119.985 0.0971944 115.527C0.852709 111.825 3.79922 109.181 7.27458 108.728Z" fill="#D6EDF6"/>
<path d="M184.194 52.9945C183.159 52.9945 182.297 53.167 181.434 53.3395C177.985 46.7858 171.776 41.7843 164.188 40.2321C164.705 38.1625 164.878 36.0929 164.878 33.8508C164.878 16.6043 150.908 2.80701 133.834 2.80701C123.141 2.80701 113.828 8.15344 108.136 16.2593C101.065 10.0506 91.9246 6.25632 81.9216 6.25632C60.1909 6.25632 42.5994 23.6754 42.2545 45.2336C35.8732 47.1307 30.6993 51.4423 27.7673 57.1337C27.4224 57.1337 27.0775 57.1337 26.5601 57.1337C19.489 57.1337 13.7976 62.8251 13.7976 69.8962C13.7976 76.9673 19.489 82.6586 26.5601 82.6586C27.5949 82.6586 28.6297 82.4862 29.6645 82.3137C33.9761 88.1775 41.0472 92.1443 48.9806 92.1443C51.7401 92.1443 54.3271 91.6269 56.7416 90.7645C61.9156 100.595 72.091 107.321 83.9912 107.321C91.4072 107.321 98.3058 104.734 103.48 100.25C109.344 105.597 116.932 108.873 125.555 108.873C138.835 108.873 150.046 100.94 155.047 89.7297C156.254 89.9022 157.634 90.0747 158.841 90.0747C166.257 90.0747 172.984 86.7978 177.468 81.7963C179.537 82.8311 181.607 83.3485 184.021 83.3485C192.3 83.3485 199.198 76.6223 199.198 68.1715C199.371 59.7207 192.645 52.9945 184.194 52.9945Z" fill="#D6EDF6"/>
<path d="M179.631 0L181.049 2.83627L184.169 3.32248L181.9 5.51046L182.427 8.67087L179.631 7.1717L176.795 8.67087L177.362 5.51046L175.053 3.32248L178.213 2.83627L179.631 0Z" fill="#87CDE9"/>
<path d="M95.6332 128.539H89.8501V122.756C89.8501 121.704 89.0089 120.863 87.9575 120.863C86.906 120.863 86.0648 121.704 86.0648 122.756V128.539H80.2818C79.2303 128.539 78.3892 129.38 78.3892 130.432C78.3892 131.483 79.2303 132.324 80.2818 132.324H86.0648V138.107C86.0648 139.159 86.906 140 87.9575 140C89.0089 140 89.8501 139.159 89.8501 138.107V132.324H95.6332C96.6846 132.324 97.5258 131.483 97.5258 130.432C97.5258 129.38 96.6846 128.539 95.6332 128.539Z" fill="#23CAB4"/>
<path d="M184.21 105.955H177.984V99.7189C177.984 98.5691 177.08 97.6632 175.932 97.6632C174.784 97.6632 173.88 98.5691 173.88 99.7189V105.955H167.619C166.471 105.955 165.567 106.861 165.567 108.011C165.567 109.161 166.471 110.067 167.619 110.067H173.88V116.303C173.88 117.453 174.784 118.359 175.932 118.359C177.08 118.359 177.984 117.453 177.984 116.303V110.067H184.21C185.358 110.067 186.263 109.161 186.263 108.011C186.263 106.861 185.323 105.955 184.21 105.955Z" fill="#70CEEC"/>
<path d="M17.7737 36.9634H14.1418V33.3254C14.1418 32.6546 13.6142 32.1262 12.9446 32.1262C12.2751 32.1262 11.7475 32.6546 11.7475 33.3254V36.9634H8.09531C7.42573 36.9634 6.89819 37.4918 6.89819 38.1625C6.89819 38.8332 7.42573 39.3617 8.09531 39.3617H11.7475V42.9997C11.7475 43.6704 12.2751 44.1988 12.9446 44.1988C13.6142 44.1988 14.1418 43.6704 14.1418 42.9997V39.3617H17.7737C18.4433 39.3617 18.9708 38.8332 18.9708 38.1625C18.9708 37.4918 18.423 36.9634 17.7737 36.9634Z" fill="#70CEEC"/>
<rect width="52.8055" height="85.5392" rx="6" transform="matrix(0.981748 -0.190186 0.191434 0.981505 77 30.0428)" fill="#87CDE9"/>
<rect width="39.6041" height="4.69995" rx="2.34998" transform="matrix(0.981748 -0.190186 0.191434 0.981505 84.8286 35.701)" fill="#3E8CB9"/>
<rect width="19.8021" height="4.69995" rx="2.34998" transform="matrix(0.981748 -0.190186 0.191434 0.981505 89.147 57.8435)" fill="white"/>
<rect width="19.8021" height="4.69995" rx="2.34998" transform="matrix(0.981748 -0.190186 0.191434 0.981505 94.0054 82.7538)" fill="white"/>
<rect width="19.8021" height="4.69995" rx="2.34998" transform="matrix(0.981748 -0.190186 0.191434 0.981505 113.908 96.1327)" fill="white"/>
<rect width="25.4598" height="4.69995" rx="2.34998" transform="matrix(0.981748 -0.190186 0.191434 0.981505 90.7666 66.1468)" fill="white"/>
<rect width="36.7752" height="4.69995" rx="2.34998" transform="matrix(0.981748 -0.190186 0.191434 0.981505 92.3862 74.4503)" fill="white"/>
<rect width="33.0034" height="4.69995" rx="2.34998" transform="matrix(0.981748 -0.190186 0.191434 0.981505 87.5273 49.54)" fill="white"/>
<path d="M70.189 20.125L73.1762 26.159L79.8076 27.1149L75.0282 31.8346L76.1633 38.4064L70.189 35.2997L64.2745 38.4064L65.4096 31.8346L60.6301 27.1149L67.2616 26.159L70.189 20.125Z" fill="#87CDE9"/>
</svg>
