<svg width="18" height="18" viewBox="0 0 18 18" fill="none" xmlns="http://www.w3.org/2000/svg">
<path fill-rule="evenodd" clip-rule="evenodd" d="M2.25 1.5V16.1925C2.3475 16.1925 2.445 16.155 2.5125 16.08L3.105 15.4875C3.255 15.3375 3.4875 15.3375 3.6375 15.4875L4.23 16.08C4.38 16.23 4.6125 16.23 4.7625 16.08L5.355 15.4875C5.505 15.3375 5.7375 15.3375 5.8875 15.4875L6.48 16.08C6.63 16.23 6.8625 16.23 7.0125 16.08L7.605 15.4875C7.755 15.3375 7.9875 15.3375 8.1375 15.4875L8.73 16.08C8.88 16.23 9.1125 16.23 9.2625 16.08L9.855 15.4875C10.005 15.3375 10.2375 15.3375 10.3875 15.4875L10.98 16.08C11.13 16.23 11.3625 16.23 11.5125 16.08L12.105 15.4875C12.255 15.3375 12.4875 15.3375 12.6375 15.4875L13.23 16.08C13.38 16.23 13.6125 16.23 13.7625 16.08L14.355 15.4875C14.505 15.3375 14.7375 15.3375 14.8875 15.4875L15.48 16.08C15.555 16.155 15.6525 16.1925 15.7425 16.1925V1.5H2.25ZM5.25 12.75H12.75C13.1625 12.75 13.5 12.4125 13.5 12C13.5 11.5875 13.1625 11.25 12.75 11.25H5.25C4.8375 11.25 4.5 11.5875 4.5 12C4.5 12.4125 4.8375 12.75 5.25 12.75ZM5.25 9.74999H12.75C13.1625 9.74999 13.5 9.41249 13.5 8.99999C13.5 8.58749 13.1625 8.24999 12.75 8.24999H5.25C4.8375 8.24999 4.5 8.58749 4.5 8.99999C4.5 9.41249 4.8375 9.74999 5.25 9.74999ZM5.25 6.74999H12.75C13.1625 6.74999 13.5 6.41249 13.5 5.99999C13.5 5.58749 13.1625 5.24999 12.75 5.24999H5.25C4.8375 5.24999 4.5 5.58749 4.5 5.99999C4.5 6.41249 4.8375 6.74999 5.25 6.74999Z" fill="#3E8CB9"/>
</svg>
