<svg width="223" height="140" viewBox="0 0 223 140" fill="none" xmlns="http://www.w3.org/2000/svg">
<path d="M191.163 32.6788C192.028 27.7945 196.658 24.5382 201.542 25.3523C203.832 25.7084 205.765 26.9295 207.088 28.5576C208.665 26.9295 210.955 26.0646 213.346 26.4716C217.213 27.0822 219.859 30.7454 219.197 34.6123C219.095 35.121 218.994 35.579 218.79 36.0369C221.283 37.0036 222.86 39.5984 222.403 42.3459C221.894 45.5004 218.943 47.6373 215.788 47.1285C215.279 47.0267 214.822 46.8741 214.364 46.7215C212.736 48.2987 210.446 49.1128 208.004 48.7057C206.884 48.5022 205.867 48.0952 204.951 47.4847C203.119 49.1637 200.626 49.9777 197.981 49.5707C194.673 49.011 192.18 46.6197 191.315 43.6178C191.163 43.6178 191.01 43.567 190.858 43.567C187.856 43.0582 185.871 40.2598 186.329 37.258C186.838 34.7649 188.822 32.9841 191.163 32.6788Z" fill="#D6EDF6"/>
<path d="M7.27483 108.728C8.5592 101.475 15.4344 96.6395 22.6873 97.8483C26.0871 98.3772 28.9581 100.19 30.9224 102.608C33.2645 100.19 36.6643 98.906 40.2153 99.5105C45.9572 100.417 49.8858 105.857 48.9037 111.599C48.7526 112.354 48.6015 113.034 48.2993 113.714C52.0013 115.15 54.3434 119.003 53.6634 123.083C52.9079 127.767 48.5259 130.94 43.8417 130.184C43.0862 130.033 42.4063 129.807 41.7263 129.58C39.3086 131.922 35.9088 133.131 32.2824 132.526C30.6202 132.224 29.1092 131.62 27.7493 130.713C25.0294 133.206 21.3274 134.415 17.3987 133.811C12.4879 132.98 8.78586 129.429 7.50148 124.971C7.27483 124.971 7.04817 124.896 6.82152 124.896C2.36398 124.14 -0.582525 119.985 0.0974385 115.527C0.852953 111.825 3.79946 109.181 7.27483 108.728Z" fill="#D6EDF6"/>
<path d="M184.193 52.9945C183.158 52.9945 182.296 53.167 181.434 53.3395C177.984 46.7858 171.775 41.7843 164.187 40.2321C164.704 38.1625 164.877 36.0929 164.877 33.8508C164.877 16.6043 150.907 2.80701 133.833 2.80701C123.14 2.80701 113.827 8.15344 108.136 16.2593C101.065 10.0506 91.9239 6.25632 81.9208 6.25632C60.1902 6.25632 42.5987 23.6754 42.2537 45.2336C35.8725 47.1307 30.6985 51.4423 27.7666 57.1337C27.4217 57.1337 27.0768 57.1337 26.5594 57.1337C19.4883 57.1337 13.7969 62.8251 13.7969 69.8962C13.7969 76.9673 19.4883 82.6586 26.5594 82.6586C27.5942 82.6586 28.6289 82.4862 29.6637 82.3137C33.9754 88.1775 41.0465 92.1443 48.9799 92.1443C51.7394 92.1443 54.3263 91.6269 56.7409 90.7645C61.9148 100.595 72.0903 107.321 83.9904 107.321C91.4065 107.321 98.3051 104.734 103.479 100.25C109.343 105.597 116.931 108.873 125.555 108.873C138.835 108.873 150.045 100.94 155.046 89.7297C156.254 89.9022 157.633 90.0747 158.841 90.0747C166.257 90.0747 172.983 86.7978 177.467 81.7963C179.536 82.8311 181.606 83.3485 184.021 83.3485C192.299 83.3485 199.198 76.6223 199.198 68.1715C199.37 59.7207 192.644 52.9945 184.193 52.9945Z" fill="#D6EDF6"/>
<path d="M179.631 0L181.049 2.83627L184.169 3.32248L181.9 5.51046L182.427 8.67087L179.631 7.1717L176.795 8.67087L177.362 5.51046L175.053 3.32248L178.213 2.83627L179.631 0Z" fill="#87CDE9"/>
<path d="M95.6327 128.539H89.8496V122.756C89.8496 121.705 89.0085 120.863 87.957 120.863C86.9055 120.863 86.0644 121.705 86.0644 122.756V128.539H80.2813C79.2298 128.539 78.3887 129.38 78.3887 130.432C78.3887 131.483 79.2298 132.324 80.2813 132.324H86.0644V138.107C86.0644 139.159 86.9055 140 87.957 140C89.0085 140 89.8496 139.159 89.8496 138.107V132.324H95.6327C96.6841 132.324 97.5253 131.483 97.5253 130.432C97.5253 129.38 96.6841 128.539 95.6327 128.539Z" fill="#23CAB4"/>
<path d="M184.21 105.955H177.984V99.7189C177.984 98.5691 177.08 97.6632 175.932 97.6632C174.784 97.6632 173.88 98.5691 173.88 99.7189V105.955H167.619C166.471 105.955 165.566 106.861 165.566 108.011C165.566 109.161 166.471 110.067 167.619 110.067H173.88V116.303C173.88 117.453 174.784 118.359 175.932 118.359C177.08 118.359 177.984 117.453 177.984 116.303V110.067H184.21C185.358 110.067 186.262 109.161 186.262 108.011C186.262 106.861 185.323 105.955 184.21 105.955Z" fill="#70CEEC"/>
<path d="M17.7739 36.9633H14.142V33.3253C14.142 32.6546 13.6145 32.1262 12.9449 32.1262C12.2753 32.1262 11.7478 32.6546 11.7478 33.3253V36.9633H8.09555C7.42598 36.9633 6.89844 37.4918 6.89844 38.1625C6.89844 38.8332 7.42598 39.3616 8.09555 39.3616H11.7478V42.9996C11.7478 43.6703 12.2753 44.1988 12.9449 44.1988C13.6145 44.1988 14.142 43.6703 14.142 42.9996V39.3616H17.7739C18.4435 39.3616 18.971 38.8332 18.971 38.1625C18.971 37.4918 18.4232 36.9633 17.7739 36.9633Z" fill="#70CEEC"/>
<path fill-rule="evenodd" clip-rule="evenodd" d="M56.1644 56.4075C56.1644 56.5707 56.1644 56.8972 56.1644 57.0605C56.4909 59.8356 58.4498 62.121 61.225 62.774C61.8779 65.7123 64.4898 67.8345 67.5914 67.8345C67.5914 71.4258 70.5298 74.3642 74.1211 74.3642H77.386C77.386 77.9555 80.3244 80.8939 83.9157 80.8939H93.7103C97.3016 80.8939 100.077 66.855 100.24 66.6918C101.546 65.2226 99.7503 65.8756 99.587 65.8756C98.934 66.3653 97.9546 66.3653 97.4649 65.7123L89.3027 57.5502C86.3644 54.7751 82.4465 53.1426 78.2022 53.1426H57.7969C56.8174 53.1426 56.1644 53.7956 56.1644 54.7751C56.1644 54.9383 56.1644 56.081 56.1644 56.4075Z" fill="#3E8CB9"/>
<path fill-rule="evenodd" clip-rule="evenodd" d="M58.6129 57.0604C58.2864 56.4075 57.4702 56.2442 56.9805 56.5707C56.654 56.734 56.4907 57.0604 56.3275 57.5502C56.654 59.5091 57.7967 61.1415 59.5924 62.121C59.5924 62.4475 59.4291 62.6107 59.4291 62.9372C59.4291 66.5285 62.3675 69.4669 65.9588 69.4669C65.9588 73.0582 68.8972 75.9966 72.4885 75.9966H75.7534C75.7534 79.5879 78.6918 82.5263 82.2831 82.5263H92.0777C95.669 82.5263 92.0777 79.2615 92.0777 79.2615H82.2831C80.4874 79.2615 79.0183 77.7923 79.0183 75.9966H79.1815H80.6507C81.6301 75.9966 82.2831 75.3436 82.2831 74.3642C82.2831 73.3847 81.6301 72.7317 80.6507 72.7317H76.0799H75.5902H72.3253C70.5296 72.7317 69.0604 71.2626 69.0604 69.4669H72.9783H73.9577C74.9372 69.4669 75.5902 68.8139 75.5902 67.8345C75.5902 66.855 74.9372 66.202 73.9577 66.202H70.0399H67.428H65.7956C63.9999 66.202 62.5307 64.7329 62.5307 62.9372H64.1632H66.9383H69.0604C70.0399 62.9372 70.6929 62.2842 70.6929 61.3048C70.6929 60.3253 70.0399 59.6723 69.0604 59.6723H64.1632C64.1632 59.6723 64.1632 59.6723 63.9999 59.6723H63.3469C61.5513 59.6723 59.7556 58.6929 58.6129 57.0604C58.7761 57.0604 58.6129 57.0604 58.6129 57.0604Z" fill="#3E8CB9"/>
<path d="M126.695 49.9663L111.968 56.2065C110.722 56.7345 109.261 56.1238 108.721 54.8495L99.8842 33.9958C99.3442 32.7214 99.9219 31.2467 101.168 30.7187L115.894 24.4785C117.14 23.9505 118.602 24.5611 119.142 25.8355L127.978 46.6892C128.518 47.9636 127.941 49.4383 126.695 49.9663Z" fill="#61C7B5"/>
<path d="M115.934 34.0282C115.197 34.3403 114.338 34.3626 113.583 33.9994C112.04 33.3548 111.255 31.5011 111.84 29.8866C112.129 29.1492 112.743 28.5476 113.479 28.2356C114.215 27.9236 115.074 27.9012 115.83 28.2644C117.372 28.909 118.158 30.7627 117.572 32.3772C117.283 33.1146 116.67 33.7162 115.934 34.0282Z" fill="#3E8CB9"/>
<path d="M108.006 37.3884C107.27 37.7004 106.41 37.7228 105.655 37.3595C104.113 36.7149 103.327 34.8613 103.912 33.2467C104.201 32.5094 104.815 31.9077 105.551 31.5957C106.288 31.2837 107.147 31.2613 107.902 31.6246C109.444 32.2692 110.23 34.1229 109.645 35.7374C109.356 36.4748 108.742 37.0764 108.006 37.3884Z" fill="#3E8CB9"/>
<path d="M119.124 41.5589C118.388 41.8709 117.529 41.8933 116.774 41.53C115.231 40.8854 114.446 39.0318 115.031 37.4172C115.32 36.6799 115.909 36.0203 116.645 35.7083C117.381 35.3963 118.24 35.3739 118.996 35.7372C120.538 36.3818 121.324 38.2354 120.738 39.85C120.474 40.6452 119.86 41.2469 119.124 41.5589Z" fill="#3E8CB9"/>
<path d="M111.196 44.9188C110.46 45.2308 109.601 45.2532 108.846 44.8899C107.303 44.2453 106.518 42.3917 107.103 40.7771C107.392 40.0398 107.981 39.3802 108.717 39.0682C109.454 38.7562 110.313 38.7338 111.068 39.0971C112.61 39.7417 113.396 41.5953 112.811 43.2099C112.546 44.0052 111.933 44.6068 111.196 44.9188Z" fill="#3E8CB9"/>
<path d="M122.314 49.0891C121.577 49.4011 120.718 49.4235 119.963 49.0602C118.42 48.4156 117.635 46.562 118.22 44.9474C118.509 44.2101 119.098 43.5505 119.834 43.2385C120.571 42.9265 121.43 42.9041 122.185 43.2674C123.728 43.912 124.513 45.7656 123.928 47.3802C123.663 48.1755 123.05 48.7771 122.314 49.0891Z" fill="#3E8CB9"/>
<path d="M114.386 52.4493C113.65 52.7613 112.791 52.7837 112.035 52.4204C110.493 51.7758 109.707 49.9221 110.292 48.3076C110.581 47.5702 111.17 46.9107 111.907 46.5987C112.643 46.2867 113.502 46.2643 114.257 46.6275C115.8 47.2721 116.585 49.1258 116 50.7403C115.736 51.5356 115.122 52.1373 114.386 52.4493Z" fill="#3E8CB9"/>
<path d="M107.759 36.8089C109.01 36.2787 109.585 34.8115 109.042 33.5318C108.5 32.2521 107.046 31.6445 105.795 32.1747C104.544 32.7049 103.969 34.1722 104.511 35.4518C105.053 36.7315 106.507 37.3391 107.759 36.8089Z" fill="#D6EDF6"/>
<path d="M115.688 33.4489C116.94 32.9187 117.514 31.4515 116.972 30.1718C116.43 28.8921 114.976 28.2845 113.725 28.8147C112.473 29.345 111.899 30.8122 112.441 32.0919C112.983 33.3715 114.437 33.9791 115.688 33.4489Z" fill="#D6EDF6"/>
<path d="M110.95 44.3396C112.201 43.8094 112.776 42.3422 112.234 41.0625C111.691 39.7829 110.238 39.1753 108.986 39.7055C107.735 40.2357 107.16 41.7029 107.703 42.9826C108.245 44.2623 109.699 44.8699 110.95 44.3396Z" fill="#D6EDF6"/>
<path d="M118.88 40.9792C120.131 40.449 120.706 38.9818 120.163 37.7021C119.621 36.4224 118.167 35.8149 116.916 36.3451C115.665 36.8753 115.09 38.3425 115.632 39.6222C116.175 40.9019 117.628 41.5094 118.88 40.9792Z" fill="#D6EDF6"/>
<path d="M114.139 51.8702C115.391 51.34 115.965 49.8727 115.423 48.5931C114.881 47.3134 113.427 46.7058 112.176 47.236C110.924 47.7662 110.35 49.2334 110.892 50.5131C111.434 51.7928 112.888 52.4004 114.139 51.8702Z" fill="#D6EDF6"/>
<path d="M122.071 48.5099C123.322 47.9797 123.897 46.5125 123.355 45.2328C122.813 43.9531 121.359 43.3455 120.107 43.8757C118.856 44.4059 118.281 45.8731 118.824 47.1528C119.366 48.4325 120.82 49.0401 122.071 48.5099Z" fill="#D6EDF6"/>
<path d="M101.026 27.9237L99.6127 21.2411L89.8115 23.3147L91.2253 29.9973L86.9146 34.2257C86.0582 35.0178 85.7162 36.2247 85.9636 37.3941L90.5233 58.9456C90.7177 59.8645 91.6118 60.4607 92.5103 60.2706L112.113 56.1234C113.011 55.9333 113.587 55.026 113.393 54.1071L108.833 32.5556C108.586 31.3862 107.784 30.4212 106.68 30.0439L101.026 27.9237Z" fill="#87CDE9"/>
<path d="M89.2852 53.0982L90.5223 58.9455C90.7167 59.8644 91.6108 60.4606 92.5093 60.2706L112.112 56.1233C113.01 55.9332 113.586 55.0259 113.392 54.107L112.155 48.2597L89.2852 53.0982Z" fill="#61C7B5"/>
<path d="M101.137 24.4097L89.7024 26.829C89.2123 26.9327 88.8149 26.6676 88.7089 26.1664L88.1787 23.6605C88.0726 23.1593 88.3287 22.756 88.8187 22.6523L100.253 20.2331C100.743 20.1294 101.141 20.3944 101.247 20.8956L101.777 23.4016C101.883 23.9028 101.627 24.306 101.137 24.4097Z" fill="#3E8CB9"/>
<path d="M109.326 34.8947L86.457 39.7332L89.9916 56.4397L112.861 51.6012L109.326 34.8947Z" fill="#3E8CB9"/>
<path d="M104.207 42.9599L100.94 43.6511L100.233 40.3098L96.9663 41.001L97.6732 44.3423L94.4061 45.0335L95.1131 48.3748L98.3801 47.6836L99.087 51.0249L102.354 50.3337L101.647 46.9924L104.914 46.3012L104.207 42.9599Z" fill="#D6EDF6"/>
<path d="M130.129 59.2755L146.12 59.0167C147.474 58.9948 148.562 57.8446 148.54 56.4607L148.174 33.815C148.151 32.4311 147.026 31.3167 145.673 31.3386L129.681 31.5975C128.328 31.6194 127.239 32.7696 127.261 34.1535L127.628 56.7992C127.65 58.1831 128.776 59.2974 130.129 59.2755Z" fill="#61C7B5"/>
<path d="M133.516 40.3443C134.316 40.3314 135.11 40.0039 135.653 39.3659C136.803 38.1518 136.77 36.1389 135.581 34.8997C135.018 34.3425 134.214 34.0409 133.414 34.0538C132.615 34.0668 131.82 34.3943 131.277 35.0323C130.127 36.2464 130.16 38.2593 131.349 39.4985C131.912 40.0557 132.716 40.3573 133.516 40.3443Z" fill="#3E8CB9"/>
<path d="M142.125 40.2051C142.925 40.1922 143.719 39.8647 144.263 39.2267C145.412 38.0126 145.38 35.9996 144.191 34.7605C143.628 34.2033 142.823 33.9017 142.024 33.9146C141.224 33.9276 140.429 34.255 139.886 34.893C138.737 36.1071 138.769 38.1201 139.958 39.3593C140.521 39.9165 141.326 40.218 142.125 40.2051Z" fill="#3E8CB9"/>
<path d="M133.646 48.5218C134.445 48.5089 135.24 48.1814 135.783 47.5434C136.933 46.3293 136.9 44.3164 135.711 43.0772C135.148 42.52 134.343 42.1555 133.543 42.1685C132.743 42.1814 131.949 42.5089 131.406 43.1469C130.256 44.361 130.289 46.3739 131.478 47.6131C132.042 48.2332 132.846 48.5348 133.646 48.5218Z" fill="#3E8CB9"/>
<path d="M142.257 48.3826C143.057 48.3697 143.851 48.0422 144.395 47.4042C145.544 46.1901 145.511 44.1772 144.322 42.938C143.76 42.3808 142.954 42.0163 142.154 42.0292C141.355 42.0422 140.56 42.3697 140.017 43.0077C138.868 44.2218 138.9 46.2347 140.089 47.4739C140.653 48.094 141.458 48.3956 142.257 48.3826Z" fill="#3E8CB9"/>
<path d="M133.779 56.6996C134.578 56.6867 135.373 56.3592 135.916 55.7212C137.065 54.5071 137.033 52.4942 135.844 51.255C135.281 50.6978 134.475 50.3333 133.676 50.3463C132.876 50.3592 132.082 50.6867 131.538 51.3247C130.389 52.5388 130.422 54.5517 131.611 55.7909C132.174 56.411 132.979 56.7126 133.779 56.6996Z" fill="#3E8CB9"/>
<path d="M142.39 56.5605C143.19 56.5475 143.984 56.2201 144.527 55.5821C145.677 54.368 145.644 52.355 144.455 51.1158C143.892 50.5587 143.087 50.1942 142.287 50.2071C141.488 50.22 140.693 50.5475 140.15 51.1855C139 52.3996 139.033 54.4126 140.222 55.6518C140.786 56.2718 141.59 56.5734 142.39 56.5605Z" fill="#3E8CB9"/>
<path d="M142.115 39.5759C140.757 39.5978 139.637 38.4891 139.614 37.0995C139.592 35.7098 140.675 34.5655 142.034 34.5435C143.393 34.5215 144.512 35.6302 144.535 37.0199C144.557 38.4095 143.474 39.5539 142.115 39.5759Z" fill="#D6EDF6"/>
<path d="M133.502 39.7153C132.143 39.7373 131.024 38.6286 131.001 37.239C130.979 35.8493 132.062 34.7049 133.421 34.6829C134.779 34.661 135.899 35.7697 135.922 37.1593C135.944 38.549 134.861 39.6933 133.502 39.7153Z" fill="#D6EDF6"/>
<path d="M142.248 47.7537C140.889 47.7756 139.77 46.6669 139.747 45.2773C139.725 43.8876 140.808 42.7433 142.167 42.7213C143.525 42.6993 144.645 43.808 144.668 45.1976C144.69 46.5873 143.607 47.7317 142.248 47.7537Z" fill="#D6EDF6"/>
<path d="M133.637 47.8926C132.278 47.9146 131.158 46.8059 131.136 45.4163C131.113 44.0266 132.197 42.8822 133.555 42.8603C134.914 42.8383 136.034 43.947 136.056 45.3366C136.079 46.7263 134.996 47.8706 133.637 47.8926Z" fill="#D6EDF6"/>
<path d="M142.379 55.9311C141.02 55.9531 139.9 54.8444 139.878 53.4547C139.855 52.0651 140.939 50.9207 142.298 50.8987C143.656 50.8767 144.776 51.9854 144.799 53.3751C144.821 54.7647 143.738 55.9091 142.379 55.9311Z" fill="#D6EDF6"/>
<path d="M133.77 56.0703C132.411 56.0923 131.291 54.9836 131.269 53.5939C131.246 52.2043 132.329 51.0599 133.688 51.0379C135.047 51.0159 136.167 52.1246 136.189 53.5143C136.212 54.904 135.128 56.0483 133.77 56.0703Z" fill="#D6EDF6"/>
<path d="M87.165 54.37L102.372 51.1527L109.388 49.6683L128.437 45.6382L135.453 44.1538L150.66 40.9365C152.406 40.567 154.138 41.6977 154.508 43.4492L154.595 44.3291L152.776 75.5544C152.58 78.3905 150.553 80.882 147.633 81.4999L106.361 90.2317C103.44 90.8497 100.578 89.3926 99.282 86.8722L84.9728 59.059C84.817 58.7925 84.7246 58.5127 84.664 58.2261C84.2934 56.4747 85.4189 54.7394 87.165 54.37Z" fill="#87CDE9"/>
<rect x="102.676" y="62.4951" width="4.18489" height="16.7396" rx="2.09245" transform="rotate(-11.9459 102.676 62.4951)" fill="#3E8CB9"/>
<rect x="120.418" y="58.7411" width="4.18489" height="16.7396" rx="2.09245" transform="rotate(-11.9459 120.418 58.7411)" fill="#3E8CB9"/>
<rect x="138.16" y="54.9874" width="4.18489" height="16.7396" rx="2.09245" transform="rotate(-11.9459 138.16 54.9874)" fill="#3E8CB9"/>
<path fill-rule="evenodd" clip-rule="evenodd" d="M53.3414 76.8117C53.4241 76.9524 53.5895 77.2339 53.6722 77.3747C55.3595 79.602 58.2061 80.5802 60.9296 79.7375C62.9811 81.9402 66.308 82.4469 68.9823 80.8757C70.8015 83.9722 74.8234 85.0173 77.9199 83.198L80.7349 81.5442C82.5541 84.6407 86.576 85.6857 89.6725 83.8665L98.1175 78.9051C101.214 77.0858 96.4952 63.5757 96.5533 63.3522C96.9351 61.4239 95.7176 62.8965 95.5768 62.9792C95.2619 63.7323 94.4174 64.2284 93.6644 63.9135L82.4924 61.0106C78.5531 60.1063 74.3482 60.6834 70.6888 62.8334L53.0951 73.1698C52.2506 73.6659 52.0184 74.5597 52.5145 75.4042C52.5972 75.5449 53.1761 76.5302 53.3414 76.8117Z" fill="white"/>
<path fill-rule="evenodd" clip-rule="evenodd" d="M55.7845 76.1345C55.1723 75.7369 54.3858 76.0096 54.129 76.5392C53.9302 76.8453 53.9548 77.2095 54.0621 77.7145C55.3359 79.2381 57.1481 80.0667 59.1925 80.0016C59.3579 80.2831 59.2998 80.5066 59.4652 80.7881C61.2844 83.8845 65.3063 84.9296 68.4028 83.1104C70.222 86.2069 74.2439 87.2519 77.3404 85.4327L80.1554 83.7789C81.9746 86.8753 85.9965 87.9204 89.093 86.1012L97.538 81.1397C100.634 79.3205 95.8842 78.3247 95.8842 78.3247L87.4392 83.2862C85.891 84.1958 83.88 83.6733 82.9704 82.125L83.1111 82.0423L84.3779 81.2981C85.2224 80.802 85.4546 79.9082 84.9585 79.0637C84.4623 78.2192 83.5686 77.987 82.7241 78.4831L78.7831 80.7985L78.3608 81.0466L75.5459 82.7004C73.9976 83.61 71.9866 83.0875 71.077 81.5392L74.455 79.5546L75.2995 79.0585C76.144 78.5623 76.3762 77.6686 75.8801 76.8241C75.3839 75.9796 74.4902 75.7474 73.6457 76.2435L70.2677 78.2281L68.0157 79.5512L66.6082 80.3781C65.06 81.2877 63.049 80.7652 62.1394 79.2169L63.5469 78.39L65.9396 76.9843L67.7694 75.9093C68.6139 75.4131 68.8461 74.5194 68.35 73.6749C67.8538 72.8304 66.9601 72.5981 66.1156 73.0943L61.8931 75.575C61.8931 75.575 61.8931 75.575 61.7523 75.6577L61.1893 75.9885C59.6411 76.8981 57.5967 76.9632 55.7845 76.1345C55.9253 76.0518 55.7845 76.1345 55.7845 76.1345Z" fill="#87CDE9"/>
<path d="M70.1897 20.1249L73.1769 26.159L79.8084 27.1149L75.0289 31.8346L76.164 38.4063L70.1897 35.2997L64.2752 38.4063L65.4103 31.8346L60.6309 27.1149L67.2623 26.159L70.1897 20.1249Z" fill="#87CDE9"/>
</svg>
